<?xml version="1.0" encoding="UTF-8"?>
<svg width="5px" height="5px" viewBox="0 0 5 5" version="1.1" xmlns="http://www.w3.org/2000/svg" xmlns:xlink="http://www.w3.org/1999/xlink">
    <title>Path</title>
    <g id="Symbols" stroke="none" stroke-width="1" fill="none" fill-rule="evenodd">
        <g id="Header" transform="translate(-924.000000, -16.000000)" fill="#000000" fill-rule="nonzero">
            <g id="out" transform="translate(924.000000, 16.000000)">
                <path d="M4.44356121,0 L1.33942766,0 C1.03259141,0 0.782988871,0.24963434 0.782988871,0.556438792 C0.782988871,0.863243243 1.03259141,1.11287758 1.33942766,1.11287758 L3.10022258,1.11287758 L0.163020668,4.05004769 C0.0578696343,4.15513514 0,4.29484897 0,4.44352941 C0,4.59220986 0.0578378378,4.73189189 0.162957075,4.83688394 C0.268076312,4.94209857 0.407758347,5 0.556438792,5 C0.705055644,5 0.844801272,4.94213037 0.949952305,4.83697933 L3.88712242,1.89977742 L3.88712242,3.66057234 C3.88712242,3.96737679 4.13675676,4.21701113 4.44356121,4.21701113 C4.75036566,4.21701113 5,3.96737679 5,3.66057234 L5,0.556438792 C5,0.24963434 4.75036566,0 4.44356121,0 Z" id="Path"></path>
            </g>
        </g>
    </g>
</svg>