<?xml version="1.0" encoding="UTF-8"?>
<svg width="27px" height="27px" viewBox="0 0 27 27" version="1.1" xmlns="http://www.w3.org/2000/svg" xmlns:xlink="http://www.w3.org/1999/xlink">
    <title>logo (1)</title>
    <g id="V2" stroke="none" stroke-width="1" fill="none" fill-rule="evenodd">
        <g id="Desktop-HD" transform="translate(-376.000000, -56.000000)" fill-rule="nonzero">
            <g id="Header" transform="translate(376.000000, 41.000000)">
                <g id="Group-18" transform="translate(0.000000, 15.000000)">
                    <g id="path30" transform="translate(0.000000, 0.000000)" fill="#000000">
                        <path d="M14.6072167,0.0016875 C15.1914743,0.0043875 15.7652129,0.0114075 16.3260611,0.0296595 L16.7442431,0.0455625 C22.6331986,0.30375 27,2.025 27,13.5 C27,25.515 22.2125351,26.83665 15.9030451,26.9820315 L15.4754174,26.9901585 C14.9739149,26.997813 14.4634509,26.999514 13.9456143,26.999892 L13.0543574,26.999892 C12.5365208,26.999514 12.026057,26.997813 11.5245548,26.9901585 L11.0969275,26.9820315 C4.78744241,26.83665 0,25.515 0,13.5 C0,2.025 4.36678089,0.30375 10.2557302,0.0455625 L10.6739118,0.0296595 C11.2347594,0.0114075 11.8084977,0.0043875 12.3927551,0.0016875 Z" id="path-3"></path>
                    </g>
                    <g id="path42" transform="translate(13.500000, 14.000000) rotate(180.000000) translate(-13.500000, -14.000000) translate(5.000000, 3.000000)" fill="#FFFFFF">
                        <path d="M12.3686048,16.6467523 C12.3841124,16.6323981 12.4717766,16.5467055 12.4859388,16.5295381 C12.7171371,16.2063156 12.6267113,15.5943494 12.5440039,15.1886081 C12.4684484,14.8355229 12.3450955,14.5351661 12.2156528,14.3940042 C11.9033758,12.6254047 10.5139909,10.3937913 8.55337282,10.2920855 C7.01273544,10.2118028 5.09332941,12.136279 4.78600918,14.3940042 C4.65713296,14.5357432 4.54645519,14.7625977 4.47458191,15.1136631 C4.39017506,15.519116 4.23948902,16.2068926 4.47125379,16.5295381 C4.50361447,16.5774336 4.54319788,16.6160242 4.5860386,16.6467523 C4.14042427,18.3463217 4.50857124,19.2423428 4.56557419,19.3835047 C5.3544808,21.3767226 7.06442755,22.5753366 9.48638005,21.7205027 C10.3062311,21.4308215 11.2143836,21.0639591 11.8671205,20.3333362 C13.0733878,18.9859864 12.5891106,17.4869434 12.3686048,16.6467523 L12.3686048,16.6467523 Z M15.5485194,1.05725375 C12.222309,-0.352417916 4.77942375,-0.352417916 1.45427551,1.05725375 C1.18682194,1.17165477 -0.0454472084,2.37704198 0.00129520719,3.451409 C0.0682400333,5.0050413 0.153709047,6.71117464 1.4382722,8.72660911 C1.4382722,8.72660911 1.80450728,9.2538204 2.67413855,9.60488585 C2.67413855,9.60488585 4.56224607,10.2118028 5.42996545,10.8688513 C5.42996545,10.8688513 5.83323473,10.559478 5.82799471,10.5814782 C5.82884444,10.5724617 5.7845875,7.85626688 5.7845875,7.85626688 L8.16695658,1.13558888 C8.21928599,0.987660992 8.35234007,0.891011601 8.50083098,0.891011601 C8.6488262,0.891011601 8.78159704,0.987660992 8.83413889,1.13558888 L11.2171453,7.85626688 L11.173384,10.5814782 L11.5695014,10.8688513 C12.4394159,10.2118028 14.3270277,9.60488585 14.3270277,9.60488585 C15.1972255,9.2538204 15.5628941,8.72660911 15.5628941,8.72660911 C16.8479742,6.71117464 16.9315313,5.0050413 16.998731,3.451409 C17.0448999,2.37704198 15.8176016,1.17165477 15.5485194,1.05725375 Z M8.61866067,8.09120013 L9.46704861,7.22648418 L8.59408921,1.63064381 C8.58629999,1.58161583 8.54678739,1.54696372 8.50139747,1.54696372 C8.45494538,1.54696372 8.41592845,1.58161583 8.40821004,1.63064381 L7.53574632,7.22648418 L8.38356777,8.09120013 L7.43866428,9.61786957 C7.7822398,9.49214385 8.13155102,9.42116617 8.47788818,9.42116617 L8.5857335,9.42397931 C8.924069,9.43754008 9.2451974,9.5006554 9.54890626,9.59529232 L8.61866067,8.09120013 Z" id="path-1"></path>
                    </g>
                </g>
            </g>
        </g>
    </g>
</svg>